<?xml version="1.0" encoding="UTF-8"?>
<svg version="1.1" xmlns="http://www.w3.org/2000/svg" width="1024" height="1024">
<path d="M0 0 C337.92 0 675.84 0 1024 0 C1024 337.92 1024 675.84 1024 1024 C686.08 1024 348.16 1024 0 1024 C0 686.08 0 348.16 0 0 Z " fill="#FEFEFE" transform="translate(0,0)"/>
<path d="M0 0 C1.57237883 -0.00303022 3.14475619 -0.00692401 4.71713102 -0.01159257 C8.98570183 -0.0217704 13.25418771 -0.01971712 17.52276516 -0.01541197 C22.14751501 -0.01292574 26.77224539 -0.02198262 31.39698792 -0.02944946 C40.44023166 -0.04214929 49.48344565 -0.0439958 58.52669682 -0.0416492 C65.88968207 -0.03985943 73.25265836 -0.04162976 80.61564255 -0.04587364 C82.19320697 -0.04676643 82.19320697 -0.04676643 83.80264138 -0.04767724 C85.93996864 -0.04888914 88.07729589 -0.05010327 90.21462314 -0.05131962 C110.2284578 -0.06217846 130.24227559 -0.0600414 150.25611119 -0.05393478 C168.49881325 -0.04877548 186.74146175 -0.0599979 204.98415323 -0.07903299 C223.77582236 -0.09848832 242.56746627 -0.10665345 261.35914552 -0.10290974 C271.88479968 -0.10100824 282.41040837 -0.10338101 292.93605423 -0.11762428 C301.90416912 -0.12963814 310.8722106 -0.13083304 319.84032668 -0.11883412 C324.40118306 -0.11301268 328.96190589 -0.11165433 333.52275276 -0.12383652 C350.32609028 -0.16550792 367.0138782 -0.00684981 383.75115967 1.60818481 C385.59269416 1.78494185 385.59269416 1.78494185 387.47143137 1.96526974 C398.86639975 3.19002679 409.71416448 5.8110699 420.62411499 9.26069641 C421.40947632 9.50191223 422.19483765 9.74312805 423.0039978 9.99165344 C442.60131213 16.08701307 458.71283146 26.13179504 473.62411499 40.26069641 C474.96989624 41.50979797 474.96989624 41.50979797 476.34286499 42.78413391 C508.59524555 73.67756585 518.11402761 117.83928547 519.05739212 160.9395504 C519.09687151 162.90417101 519.1356897 164.868805 519.17391968 166.83345032 C519.19478685 167.86213266 519.21565402 168.890815 519.23715353 169.95066953 C519.80369248 198.48347716 519.80697146 227.02048386 519.82430363 255.55772352 C519.82712139 260.15940552 519.8313657 264.76108559 519.8358078 269.36276627 C519.84793041 282.21502485 519.85825604 295.06728197 519.86168289 307.91954613 C519.86190246 308.73107642 519.86212202 309.54260672 519.86234824 310.37872884 C519.86256652 311.1915946 519.8627848 312.00446035 519.86300969 312.8419584 C519.86345308 314.48772264 519.86389964 316.13348687 519.86434937 317.7792511 C519.86457079 318.59551368 519.86479222 319.41177626 519.86502036 320.25277407 C519.86898039 333.51872358 519.8865027 346.78461862 519.90970889 360.05054705 C519.93358322 373.81352395 519.94589128 387.57647357 519.94705081 401.33947146 C519.94795641 409.01040162 519.95351027 416.68125906 519.97187042 424.35216904 C520.27190125 555.04523076 520.27190125 555.04523076 476.56161499 600.69819641 C456.03198863 620.74710149 429.38653205 633.06819951 401.62411499 639.26069641 C400.95348022 639.41377258 400.28284546 639.56684875 399.59188843 639.7245636 C381.0969427 643.8582908 362.1755363 644.57027543 343.29476929 644.39717102 C341.32515034 644.38730792 339.35552574 644.37852666 337.38589764 644.3707037 C333.09526305 644.35233048 328.80470935 644.3283105 324.51412582 644.30050278 C317.31966493 644.25595424 310.12523873 644.23652189 302.93066406 644.22093201 C292.10953163 644.19678354 281.28843422 644.16852117 270.46733093 644.13388062 C269.75819776 644.13161821 269.04906458 644.12935581 268.31844252 644.12702485 C263.92551152 644.11298244 259.53258117 644.09874966 255.13965109 644.08442369 C252.87738404 644.07704965 250.61511689 644.0697059 248.35284972 644.06236911 C234.15054541 644.01627652 219.94824315 643.96958696 205.74594593 643.92135715 C202.50408239 643.91035741 199.26221882 643.89936474 196.02035522 643.88838196 C195.21518641 643.88565365 194.41001759 643.88292535 193.58044972 643.88011437 C180.50261125 643.83589959 167.42476411 643.79526405 154.3469098 643.7560438 C140.7794738 643.71529073 127.212052 643.67113522 113.64463729 643.62381786 C106.0826696 643.59752905 98.52070356 643.57264949 90.95871925 643.55162239 C-71.67071587 643.09481506 -71.67071587 643.09481506 -117.50088501 598.51069641 C-157.04349647 558.69711566 -158.73365 495.35584285 -158.63733435 442.94249296 C-158.63270487 439.19325827 -158.63984413 435.44404006 -158.64529419 431.69480896 C-158.65408084 424.39446612 -158.65231491 417.09416494 -158.64646891 409.79382062 C-158.64190943 403.84843946 -158.64135777 397.90306979 -158.64351654 391.95768738 C-158.64382301 391.10407684 -158.64412947 390.25046631 -158.64444523 389.37098879 C-158.64508482 387.63565548 -158.64573325 385.90032218 -158.64639041 384.16498888 C-158.65206226 367.98013218 -158.64558561 351.79529833 -158.63478968 335.61044538 C-158.62585705 321.79235358 -158.62740999 307.97429542 -158.6366272 294.15620422 C-158.64738588 278.02016556 -158.65151324 261.8841468 -158.64540267 245.74810505 C-158.64476573 244.01997185 -158.64413698 242.29183865 -158.64351654 240.56370544 C-158.64305371 239.28905478 -158.64305371 239.28905478 -158.64258154 237.9886536 C-158.64087129 232.06629858 -158.64373312 226.14395642 -158.64847565 220.22160339 C-158.65414725 212.98151251 -158.6524387 205.74146485 -158.64191416 198.50137877 C-158.6367403 194.82372654 -158.63445435 191.14614574 -158.64121246 187.46849442 C-158.66517547 173.15734214 -158.45066651 158.90229147 -157.50033569 144.61787415 C-157.42495898 143.46614495 -157.34958226 142.31441576 -157.2719214 141.12778568 C-154.23169859 100.1436218 -138.37506848 62.82625928 -107.37588501 35.26069641 C-102.94040668 31.58152728 -98.23445098 28.35168222 -93.37588501 25.26069641 C-92.78001587 24.87961731 -92.18414673 24.49853821 -91.57022095 24.10591125 C-76.83685392 14.86507416 -60.37383508 8.41724056 -43.50088501 4.32319641 C-42.731073 4.13596008 -41.96126099 3.94872375 -41.16812134 3.7558136 C-27.5938776 0.7339805 -13.8583327 -0.03863687 0 0 Z " fill="#2A7ADC" transform="translate(332.3758850097656,47.73930358886719)"/>
<path d="M0 0 C1.12133331 0.12415787 1.12133331 0.12415787 2.26531982 0.25082397 C12.36372687 1.38734929 22.25370494 3.03766911 32.1875 5.1875 C32.19558685 5.75997971 32.20367371 6.33245941 32.21200562 6.92228699 C32.29882473 12.94213099 32.39835024 18.9616745 32.50488281 24.98120117 C32.54289825 27.22040718 32.5777961 29.45966858 32.609375 31.69897461 C32.14305769 59.34042171 32.14305769 59.34042171 44.1875 83.1875 C56.17424907 94.80864016 73.44283184 100.72412284 88.53588867 107.17163086 C98.91582042 111.60780033 109.17629847 116.27003444 119.40625 121.04296875 C125.45663073 123.8630212 131.53317688 126.6244261 137.61132812 129.3840332 C138.63002991 129.84679909 139.64873169 130.30956497 140.69830322 130.78635406 C143.19459536 131.92030474 145.69099701 133.05401363 148.1875 134.1875 C148.25754673 148.99940543 148.31046685 163.81128897 148.34293652 178.6233263 C148.35841274 185.50064947 148.37951652 192.37786979 148.41381836 199.25512695 C148.44688615 205.88812217 148.46433769 212.52103838 148.47213173 219.15411949 C148.47768834 221.68875501 148.48853856 224.22338447 148.50469017 226.75797462 C148.52636714 230.29947334 148.52947096 233.84052605 148.52807617 237.38208008 C148.538862 238.43727844 148.54964783 239.49247681 148.5607605 240.57965088 C148.55663651 241.54298843 148.55251251 242.50632599 148.54826355 243.49885559 C148.55102893 244.33676541 148.55379431 245.17467524 148.55664349 246.03797626 C148.09800903 248.70860619 147.33759375 249.57967833 145.1875 251.1875 C136.89291024 252.7758257 129.65593588 247.15164796 122.7109375 243.21875 C113.18793632 237.87393167 103.68047965 234.18850367 93.1875 231.1875 C92.23375488 230.9105127 91.28000977 230.63352539 90.29736328 230.34814453 C75.24336669 226.06168814 60.15073486 223.17795002 44.6875 220.875 C43.45250763 220.6903418 43.45250763 220.6903418 42.19256592 220.50195312 C36.53214292 219.66544437 30.8651111 218.89783651 25.1875 218.1875 C24.39729462 218.08818176 23.60708923 217.98886353 22.79293823 217.88653564 C7.53402007 216.02558297 -7.67026706 215.80452551 -23.02612305 215.65576172 C-26.19335025 215.62209052 -29.36027264 215.57706202 -32.52734375 215.53125 C-33.48873764 215.5259729 -34.45013153 215.5206958 -35.44065857 215.51525879 C-41.24087631 215.42842811 -45.50792039 215.17199911 -50.0625 211.25 C-53.40627255 207.30912521 -52.96084526 203.13587529 -52.95967102 198.2363739 C-52.96518605 197.00768805 -52.96518605 197.00768805 -52.9708125 195.75418025 C-52.98185656 192.99976947 -52.98569438 190.24539641 -52.98950195 187.4909668 C-52.99576598 185.51998779 -53.00241273 183.54900997 -53.00941467 181.57803345 C-53.02682816 176.21641309 -53.03737708 170.85480164 -53.0456202 165.49316001 C-53.05076891 162.14474377 -53.05684466 158.79633031 -53.06313133 155.44791603 C-53.08218314 144.97529601 -53.09641512 134.50268305 -53.1047433 124.03004903 C-53.11452107 111.93379813 -53.14085478 99.83772996 -53.18124419 87.74154347 C-53.21137974 78.39624203 -53.22620968 69.05099305 -53.22952431 59.70564395 C-53.23187742 54.12186856 -53.24087208 48.5382884 -53.26598549 42.95456505 C-53.28922678 37.70226664 -53.29351527 32.45029254 -53.28322411 27.19795609 C-53.2827277 25.27023173 -53.28907888 23.34249163 -53.30278015 21.4148159 C-53.32044185 18.78267934 -53.31342144 16.15171393 -53.30024719 13.51957703 C-53.31121644 12.75701983 -53.32218568 11.99446263 -53.33348733 11.20879763 C-53.27146405 6.07499852 -52.0659426 3.13563066 -48.8125 -0.8125 C-36.85378333 -6.79185834 -13.20375326 -1.48896473 0 0 Z " fill="#FEFEFE" transform="translate(353.8125,282.8125)"/>
<path d="M0 0 C1.10617676 0.48960205 2.21235352 0.9792041 3.35205078 1.48364258 C6.97908991 3.10290141 10.58645261 4.76153191 14.1875 6.4375 C15.10876678 6.86536804 15.10876678 6.86536804 16.04864502 7.30187988 C21.90347086 10.02341364 27.74891252 12.7646598 33.58374023 15.52880859 C43.84290928 20.38284152 54.18004866 25.04116989 64.5625 29.625 C75.08282924 34.27000546 85.57331767 38.95984516 96 43.8125 C106.75890218 48.81720469 117.61026519 53.57998567 128.50537109 58.27929688 C132.8427248 60.15226301 137.17446022 62.03741471 141.5 63.9375 C142.25345703 64.26395508 143.00691406 64.59041016 143.78320312 64.92675781 C148.95807423 67.20807423 148.95807423 67.20807423 151.1875 69.4375 C151.55859375 71.42578125 151.55859375 71.42578125 151.625 73.75 C151.66496094 74.50925781 151.70492188 75.26851563 151.74609375 76.05078125 C150.90843797 79.62985596 148.9244559 81.02657861 146.1875 83.4375 C143.71350179 84.7886609 141.33794933 85.97522064 138.76953125 87.1015625 C138.0710759 87.42031342 137.37262054 87.73906433 136.65299988 88.06747437 C134.43999004 89.07650373 132.22084548 90.07084872 130 91.0625 C127.76891727 92.0622175 125.53961711 93.06521563 123.31486511 94.07894897 C121.93529567 94.70733972 120.55201333 95.3276574 119.16474915 95.93887329 C115.79587266 97.47093411 114.29152064 98.28146904 112.1875 101.4375 C112.00212894 104.47944838 111.93178137 107.42743946 111.95703125 110.46875 C111.95748947 111.37387329 111.95794769 112.27899658 111.9584198 113.21154785 C111.96144542 115.13827821 111.96934091 117.06500605 111.98168945 118.99169922 C111.99958579 121.87086171 112.00220138 124.74969477 112.00195312 127.62890625 C112.01793494 136.72050028 112.15282856 145.80688425 112.54296875 154.890625 C112.56889603 155.649198 112.5948233 156.407771 112.62153625 157.18933105 C112.92645734 163.23667093 114.46933513 168.06702906 117.03125 173.578125 C119.46138817 179.58779102 119.39432629 185.97989383 119.4375 192.375 C119.458125 193.13490234 119.47875 193.89480469 119.5 194.67773438 C119.5396719 200.48470872 118.87491911 206.4603962 114.8059082 210.96801758 C113.25 212.3125 113.25 212.3125 110.1875 214.4375 C109.56875 214.870625 108.95 215.30375 108.3125 215.75 C104.89168926 216.85673289 101.69586909 217.08644688 98.1875 216.4375 C93.30128929 213.39514239 90.65190276 209.95607961 89.1875 204.4375 C88.73048924 200.03576481 88.72331639 195.67220132 88.75 191.25 C88.73001953 190.09435547 88.71003906 188.93871094 88.68945312 187.74804688 C88.69347997 180.57622962 89.78215365 174.87743263 92.26342773 168.16577148 C93.58435477 164.26580857 93.8608309 160.65400147 93.9375 156.5625 C93.96642334 155.72823486 93.99534668 154.89396973 94.02514648 154.03442383 C94.47676409 138.18113584 94.26726174 122.29536037 94.1875 106.4375 C77.12256006 114.15615072 60.08448247 121.91340735 43.25 130.125 C33.18850636 135.03249049 23.09634133 139.85939934 12.9375 144.5625 C11.2515271 145.34306763 11.2515271 145.34306763 9.53149414 146.1394043 C7.41889078 147.11478317 5.30367236 148.0845233 3.18554688 149.04785156 C1.19707298 149.96954484 -0.77631108 150.92456306 -2.73242188 151.91308594 C-9.25316176 155.13725469 -14.60099994 156.95984413 -21.77490234 154.86425781 C-23.91060659 154.03130649 -25.94278953 153.07400523 -28 152.0625 C-28.81750732 151.67819824 -29.63501465 151.29389648 -30.47729492 150.89794922 C-32.42048656 149.98134615 -34.35968955 149.05626261 -36.29589844 148.125 C-40.44051174 146.13613807 -44.598606 144.17685614 -48.7578125 142.21875 C-61.42212002 136.24986662 -74.06964261 130.24598226 -86.68408203 124.17236328 C-99.32213051 118.0902273 -112.05940379 112.22856246 -124.79882812 106.36279297 C-135.79870129 101.29690788 -146.78396846 96.20124449 -157.75 91.0625 C-158.41417938 90.75171509 -159.07835876 90.44093018 -159.76266479 90.12072754 C-179.25117961 80.99882039 -179.25117961 80.99882039 -181.8125 78.4375 C-182.58545579 74.28286263 -181.98061385 72.68952094 -179.62109375 69.15234375 C-174.96533115 63.95178703 -168.61450195 61.52750926 -162.375 58.6875 C-161.06358783 58.07524401 -159.75296853 57.4612871 -158.44311523 56.84570312 C-155.80557711 55.60848516 -153.16435367 54.3797688 -150.51953125 53.15820312 C-146.35421644 51.23086435 -142.21933878 49.24259297 -138.08666992 47.24633789 C-114.07149483 35.65496726 -89.83678888 24.49614381 -65.54324341 13.50166321 C-60.95572373 11.42213061 -56.38469234 9.31014123 -51.8223877 7.17588806 C-48.76766925 5.75216507 -45.70380128 4.34894786 -42.63781738 2.94967651 C-41.19491444 2.28592115 -39.75584055 1.61376386 -38.32116699 0.93240356 C-24.51642058 -5.61331766 -14.12329999 -6.54249401 0 0 Z " fill="#FEFEFE" transform="translate(529.8125,151.5625)"/>
<path d="M0 0 C2.12108769 3.18163153 2.25304469 3.97360986 2.27174377 7.61933899 C2.28146084 8.57076562 2.2911779 9.52219225 2.30118942 10.50244999 C2.30177982 11.54747401 2.30237022 12.59249804 2.30297852 13.66918945 C2.31565451 15.32747221 2.31565451 15.32747221 2.32858658 17.01925564 C2.35459304 20.71726887 2.36662049 24.41519898 2.37890625 28.11328125 C2.39495842 30.72406595 2.4119597 33.33484496 2.42985535 35.94561768 C2.4667551 41.50922491 2.49692644 47.07283281 2.52209473 52.63650513 C2.58083671 65.61642747 2.66216634 78.59621653 2.74295425 91.57601738 C2.76083316 94.45744972 2.77812201 97.33888471 2.79491806 100.22032356 C2.90087559 118.33093606 3.07410891 136.43844904 3.38671875 154.546875 C3.41782258 156.41436104 3.44883558 158.2818486 3.47975159 160.14933777 C3.60681844 167.72401683 3.74172425 175.29823581 3.90960407 182.87212944 C3.97280311 185.85475256 4.02400818 188.83749297 4.07195473 191.82039642 C4.10794265 193.80011166 4.16010498 195.77951274 4.2129364 197.7588501 C4.23000137 198.91809998 4.24706635 200.07734985 4.26464844 201.27172852 C4.28605896 202.26624527 4.30746948 203.26076202 4.32952881 204.28541565 C3.93494228 207.53593093 2.91189158 209.36463453 1 212 C-4.49405331 216.05212002 -10.65159345 215.40743829 -17.18359375 215.37109375 C-19.64844077 215.38518108 -22.11328451 215.39985164 -24.578125 215.41503906 C-25.86267578 215.41797974 -27.14722656 215.42092041 -28.47070312 215.4239502 C-50.65039789 215.49971171 -72.14537185 216.08011173 -94 220 C-96.16523474 220.35366043 -98.33059949 220.70652588 -100.49609375 221.05859375 C-126.2249046 225.44487112 -152.11666318 232.32727194 -175.41796875 244.2421875 C-176.13726563 244.60948975 -176.8565625 244.97679199 -177.59765625 245.35522461 C-178.93249564 246.046503 -180.26024985 246.75175802 -181.578125 247.47485352 C-186.17382458 249.91104577 -189.85462729 250.87608003 -195 251 C-196.71060658 249.79865551 -196.71060658 249.79865551 -198 248 C-198.36914349 245.85047626 -198.36914349 245.85047626 -198.36076355 243.31135559 C-198.36488754 242.34801804 -198.36901154 241.38468048 -198.3732605 240.39215088 C-198.36247467 239.33695251 -198.35168884 238.28175415 -198.34057617 237.19458008 C-198.34101425 236.08223495 -198.34145233 234.96988983 -198.34190369 233.82383728 C-198.33980991 230.13889144 -198.31645047 226.45439783 -198.29296875 222.76953125 C-198.28737491 220.2179133 -198.28310381 217.66629212 -198.28010559 215.1146698 C-198.26981274 209.07979791 -198.24615699 203.04512082 -198.21605712 197.01032704 C-198.18253223 190.13979452 -198.16603194 183.26925425 -198.15097082 176.3986603 C-198.11960783 162.26568331 -198.06683542 148.13285056 -198 134 C-192.82316103 131.54452252 -187.64596546 129.08979894 -182.46846008 126.63572693 C-180.71285206 125.80346777 -178.95733604 124.97101452 -177.20191956 124.13835144 C-164.47860302 118.1034002 -151.74498554 112.09943968 -138.90527344 106.31494141 C-135.65172481 104.84236889 -132.40850669 103.34798564 -129.1640625 101.85546875 C-126.8806392 100.81936241 -124.59679492 99.78418327 -122.3125 98.75 C-121.25377686 98.25894775 -120.19505371 97.76789551 -119.10424805 97.26196289 C-118.117229 96.81973389 -117.13020996 96.37750488 -116.11328125 95.921875 C-115.24485596 95.52581055 -114.37643066 95.12974609 -113.48168945 94.72167969 C-108.56795142 93.29275597 -104.74540365 95.48513127 -100.3125 97.5625 C-92.03938849 101.05604158 -85.05878327 100.96773764 -76.58203125 98.09765625 C-66.65711793 93.87844196 -60.56223474 88.53235896 -55.9765625 78.8359375 C-50.32350244 63.74382304 -54.62912325 45.64992517 -58.59082031 30.69287109 C-60.50343995 23.40538489 -61.1458976 16.5490381 -61.0625 9.0625 C-61.05798828 8.28326172 -61.05347656 7.50402344 -61.04882812 6.70117188 C-61.03716908 4.80074732 -61.01923877 2.90036294 -61 1 C-57.1304949 -0.79161177 -53.98806031 -1.28060344 -49.73828125 -1.37890625 C-48.53623047 -1.41306641 -47.33417969 -1.44722656 -46.09570312 -1.48242188 C-44.84724609 -1.50884766 -43.59878906 -1.53527344 -42.3125 -1.5625 C-34.87754827 -1.74574212 -27.51086853 -1.95669342 -20.1159668 -2.77514648 C-13.09311332 -3.52143102 -6.00220749 -4.26472637 0 0 Z " fill="#FEFEFE" transform="translate(721,283)"/>
<path d="M0 0 C3.58806912 2.77752689 6.80712502 5.78042874 10 9 C10.77085937 9.72574219 11.54171875 10.45148437 12.3359375 11.19921875 C25.92878668 24.86165589 30.19298578 43.35935228 30.375 62.0625 C30.22791378 82.41404157 24.05428726 100.72505443 9.875 115.6875 C-5.17488433 130.08036346 -24.26780624 136.46016989 -44.86669922 136.29614258 C-63.96662266 135.75942431 -82.15381886 127.97415968 -95.6484375 114.3203125 C-112.35069599 95.41114898 -115.43301454 73.50935204 -114 49 C-111.7056658 29.62430826 -99.94519524 12.88302986 -85 1 C-61.01436257 -16.41531431 -24.42101117 -16.11086265 0 0 Z " fill="#010101" transform="translate(846,808)"/>
<path d="M0 0 C4.25743548 1.38461882 8.19091108 2.96457048 12.20703125 4.94921875 C13.42913887 5.54870702 14.6513098 6.14806626 15.87353516 6.74731445 C16.51413879 7.06302399 17.15474243 7.37873352 17.8147583 7.70401001 C29.82524492 13.61678311 41.92179286 19.3091901 54.125 24.8125 C68.62310749 31.35464771 83.10705853 37.93398432 97.27124023 45.17895508 C103.7389976 48.25070597 110.80041225 48.45492402 117.52001953 46.12695312 C123.12568828 43.82189404 128.56067806 41.1713758 133.98754883 38.47705078 C137.28469582 36.86040929 140.60899437 35.31214344 143.94140625 33.76953125 C153.37740792 29.39168087 162.71628458 24.81551337 172.0625 20.25 C173.82221224 19.39181761 175.5819776 18.53374414 177.34179688 17.67578125 C179.03129754 16.85165994 180.72075236 16.02744467 182.41015625 15.203125 C183.18521011 14.82496643 183.96026398 14.44680786 184.75880432 14.05718994 C185.49074509 13.69961609 186.22268585 13.34204224 186.97680664 12.97363281 C187.66574005 12.63835571 188.35467346 12.30307861 189.06448364 11.9576416 C190.84031595 11.07900738 192.59604261 10.16003881 194.34936523 9.23730469 C197 8 197 8 200 8 C200.2562993 15.80288984 199.89069015 23.42598808 199.125 31.1875 C199.04652832 32.00573242 198.96805664 32.82396484 198.88720703 33.66699219 C198.46327918 37.73051554 197.8751596 41.62852739 196.9375 45.60546875 C195.4535709 52.70020167 195.78724563 59.91589548 195.875 67.125 C195.88505493 68.57291044 195.89417632 70.02082768 195.90234375 71.46875 C195.92414656 74.97931037 195.95853619 78.48961028 196 82 C193.46153475 83.11692471 190.9230562 84.23381911 188.38452148 85.35058594 C186.13251117 86.34162274 183.88072787 87.33317554 181.62915039 88.32519531 C176.05727343 90.77930459 170.48327391 93.22785479 164.8984375 95.65234375 C151.27586321 101.58088272 137.79821468 107.78199393 124.37084961 114.13769531 C123.70310013 114.45320343 123.03535065 114.76871155 122.34736633 115.09378052 C120.52457827 115.95556259 118.70292566 116.81974515 116.88134766 117.68408203 C110.72182176 120.49715139 105.64293183 120.90604902 99.27685547 118.72363281 C98.00831249 118.14863543 96.74688761 117.55773308 95.4921875 116.953125 C94.80526825 116.6374054 94.118349 116.32168579 93.41061401 115.99639893 C91.97684218 115.3360031 90.54598084 114.66925316 89.11804199 113.99633789 C87.09764903 113.04593461 85.06956109 112.11549103 83.03613281 111.19335938 C80.41465057 110.00450525 77.79571035 108.81044188 75.1796875 107.60961914 C63.51962935 102.25968714 51.83671405 97.01218999 40 92.0625 C6.44069954 77.96466959 6.44069954 77.96466959 1.85644531 67.68212891 C-0.71147668 61.01459785 -0.50235888 54.52137396 -0.390625 47.4609375 C-0.38314678 46.08518301 -0.37746134 44.70941772 -0.37347412 43.33364868 C-0.35834166 39.74629301 -0.31917107 36.15960508 -0.2746582 32.57250977 C-0.23343439 28.8986921 -0.21540581 25.22476449 -0.1953125 21.55078125 C-0.15266115 14.36688602 -0.08456522 7.18353725 0 0 Z " fill="#FDFEFE" transform="translate(406,279)"/>
<path d="M0 0 C11.88 0 23.76 0 36 0 C36 22.77 36 45.54 36 69 C39.465 65.535 39.465 65.535 43 62 C57.73300625 51.89542955 73.60468382 48.03397302 91.375 50.4609375 C103.28239239 52.84803267 111.8506227 58.13768935 119 68 C129.8927412 85.53050537 129.3081927 107.21251155 129.1953125 127.12890625 C129.19157116 129.10000971 129.18872951 131.07111506 129.18673706 133.04222107 C129.17918874 138.16964065 129.15961854 143.29694255 129.1373291 148.42431641 C129.11667835 153.68064788 129.1076947 158.93699882 129.09765625 164.19335938 C129.07636214 174.46229897 129.0412545 184.73112118 129 195 C117.45 195 105.9 195 94 195 C93.98541748 192.52346924 93.97083496 190.04693848 93.95581055 187.49536133 C93.90524117 179.26906466 93.83860808 171.04295285 93.76428509 162.81683826 C93.71975323 157.83437055 93.68046023 152.85198137 93.65356445 147.86938477 C93.62735878 143.05165554 93.58683725 138.23423141 93.53681374 133.41669273 C93.52026086 131.58815015 93.50867511 129.75955494 93.50238609 127.93094826 C93.640816 107.72874907 93.640816 107.72874907 85 90 C78.62290877 83.94176334 72.30373095 83.46868533 63.8046875 83.6796875 C53.86685333 84.51634294 45.60524885 89.66083462 39 97 C37.35662647 99.78447934 36.74737161 101.82767206 36.7215271 105.04962158 C36.71036362 105.84605072 36.69920013 106.64247986 36.68769836 107.46304321 C36.68553818 108.32763153 36.68337799 109.19221985 36.68115234 110.08300781 C36.66608391 111.45913742 36.66608391 111.45913742 36.65071106 112.86306763 C36.61983971 115.89308043 36.60283284 118.9230047 36.5859375 121.953125 C36.56722904 124.05491906 36.54765587 126.1567056 36.5272522 128.25848389 C36.47589101 133.7887732 36.43628654 139.31908688 36.39910889 144.8494873 C36.35909429 150.49346971 36.30799033 156.13735042 36.2578125 161.78125 C36.16100591 172.85410239 36.07764106 183.92699662 36 195 C24.12 195 12.24 195 0 195 C0 130.65 0 66.3 0 0 Z " fill="#020202" transform="translate(313,746)"/>
<path d="M0 0 C11.55 0 23.1 0 35 0 C35.0093457 2.59770264 35.01869141 5.19540527 35.02832031 7.87182617 C35.06223207 16.49728157 35.11785917 25.1225013 35.18390274 33.74776745 C35.22325154 38.97240054 35.25550148 44.19686825 35.27099609 49.42163086 C35.28624605 54.47283324 35.32083797 59.52358058 35.36830902 64.57457924 C35.38303733 66.49243506 35.39103605 68.41035587 35.39188385 70.32826805 C35.24158906 88.2938596 35.24158906 88.2938596 42.1875 104.5625 C48.82869905 110.31820584 55.0769279 111.63095487 63.79296875 111.31640625 C74.71458536 110.23887769 83.61298429 105.47333854 90.69031143 97.07732964 C93.01860336 93.38436786 92.83327447 89.74534164 92.77294922 85.48461914 C92.78357895 84.55700775 92.79420868 83.62939636 92.80516052 82.67367554 C92.83312346 79.62694419 92.81917531 76.58195623 92.8046875 73.53515625 C92.81594199 71.41522209 92.82982453 69.2953004 92.84622192 67.17539978 C92.88223164 61.61043221 92.88263691 56.04601435 92.87554932 50.48095703 C92.87463587 44.7964497 92.90750274 39.11214777 92.9375 33.42773438 C92.99133614 22.28503323 93.00442364 11.14283049 93 0 C104.55 0 116.1 0 128 0 C128 46.53 128 93.06 128 141 C116.78 141 105.56 141 94 141 C93.505 133.575 93.505 133.575 93 126 C90.89625 128.041875 90.89625 128.041875 88.75 130.125 C75.82895422 141.71567012 60.9863461 145.03700928 44.109375 144.1640625 C32.28890855 143.24469289 20.93467948 138.20536091 12.84765625 129.4375 C3.54463226 117.16458886 1.18041387 103.20153338 0.43579102 88.1628418 C0.39417375 87.34126178 0.35255648 86.51968176 0.30967808 85.67320538 C-0.10538592 76.80865848 -0.12673035 67.95432903 -0.09765625 59.08203125 C-0.09578361 57.36040794 -0.09436373 55.63878408 -0.09336853 53.91716003 C-0.08960981 49.45726972 -0.07983916 44.99741369 -0.06866455 40.53753662 C-0.05647276 35.14816242 -0.05201645 29.75877654 -0.04621124 24.3693924 C-0.03662152 16.24623799 -0.01741921 8.12315832 0 0 Z " fill="#000000" transform="translate(472,800)"/>
<path d="M0 0 C50.82 0 101.64 0 154 0 C154 10.89 154 21.78 154 33 C134.53 33 115.06 33 95 33 C95 86.13 95 139.26 95 194 C83.12 194 71.24 194 59 194 C59 140.87 59 87.74 59 33 C39.53 33 20.06 33 0 33 C0 22.11 0 11.22 0 0 Z " fill="#020202" transform="translate(141,747)"/>
<path d="M0 0 C0 12.87 0 25.74 0 39 C11.22 39 22.44 39 34 39 C34 48.9 34 58.8 34 69 C22.78 69 11.56 69 0 69 C0.06195889 80.46215293 0.06195889 80.46215293 0.16015625 91.92382812 C0.20829359 96.60652896 0.2524116 101.28900027 0.27099609 105.97192383 C0.2862691 109.75235403 0.32089904 113.53217902 0.36830902 117.31233788 C0.38301422 118.7461842 0.3910347 120.18011699 0.39188385 121.61403847 C0.40331791 131.25089068 0.59843338 141.26831589 7.5 148.6875 C16.71943964 152.14478987 26.55745197 149.4526997 36 148 C36 158.56 36 169.12 36 180 C20.61595808 182.36677568 20.61595808 182.36677568 12.9375 182.3125 C12.07970947 182.30686035 11.22191895 182.3012207 10.33813477 182.29541016 C-1.77662479 182.06456576 -12.98510241 179.1410281 -22.2890625 170.99609375 C-34.92039549 157.77340622 -35.31556572 141.34805494 -35.1953125 124.078125 C-35.19157297 122.48101989 -35.18873045 120.88391245 -35.18673706 119.2868042 C-35.17917449 115.12432291 -35.15959128 110.9619857 -35.1373291 106.79956055 C-35.11670986 102.53566434 -35.10770129 98.2717444 -35.09765625 94.0078125 C-35.07633684 85.67180217 -35.04121678 77.33593572 -35 69 C-42.59 69 -50.18 69 -58 69 C-58 59.1 -58 49.2 -58 39 C-50.41 39 -42.82 39 -35 39 C-35 27.45 -35 15.9 -35 4 C-28.18728695 2.7613249 -21.54524737 1.60442038 -14.6875 0.875 C-13.54958008 0.74544922 -13.54958008 0.74544922 -12.38867188 0.61328125 C-8.18297209 0.15368179 -4.27468269 0 0 0 Z " fill="#000000" transform="translate(682,761)"/>
<path d="M0 0 C9.41573057 6.91961407 15.09773226 16.08834603 17.515625 27.5234375 C17.79363625 31.6863204 17.79313201 35.85227273 17.828125 40.0234375 C17.87163086 41.70566406 17.87163086 41.70566406 17.91601562 43.421875 C18.01162288 56.15970374 14.38413869 67.06281057 5.703125 76.4921875 C-1.11565143 82.98102313 -8.09663495 85.70779765 -17.484375 86.0234375 C-27.91172177 85.65103226 -34.73935934 82.29128231 -42.22265625 75.0546875 C-52.3484228 63.72222338 -54.12439764 48.68057006 -53.76953125 33.9921875 C-52.75556473 21.65790978 -47.89345701 10.94065856 -38.89453125 2.4375 C-27.94004601 -6.26217223 -12.03038887 -7.15013678 0 0 Z " fill="#FDFDFD" transform="translate(821.484375,829.4765625)"/>
<path d="M0 0 C0.33 0 0.66 0 1 0 C1.98016731 21.34470736 2.11851633 42.63788816 2 64 C-0.2172681 62.25588524 -0.9426905 61.38255352 -1.36749268 58.54690552 C-1.36384705 57.57381439 -1.36020142 56.60072327 -1.35644531 55.59814453 C-1.35944641 54.49334747 -1.36244751 53.38855042 -1.36553955 52.25027466 C-1.35319275 51.05651215 -1.34084595 49.86274963 -1.328125 48.6328125 C-1.32625183 47.40593719 -1.32437866 46.17906189 -1.32244873 44.91500854 C-1.31572044 42.31749764 -1.30179072 39.719997 -1.28125 37.12255859 C-1.25017992 33.14801606 -1.24028746 29.17387053 -1.234375 25.19921875 C-1.22520147 22.67707851 -1.21482459 20.15494229 -1.203125 17.6328125 C-1.19887512 16.44309845 -1.19462524 15.2533844 -1.19024658 14.02761841 C-1.18063904 12.91651703 -1.17103149 11.80541565 -1.16113281 10.66064453 C-1.15430481 9.68596222 -1.14747681 8.71127991 -1.14044189 7.70706177 C-1.00237118 5.04570519 -0.59231826 2.59474063 0 0 Z " fill="#3680DD" transform="translate(175,459)"/>
<path d="M0 0 C10.89 0 21.78 0 33 0 C30 3 30 3 26.99731445 3.34057617 C25.7980835 3.32486572 24.59885254 3.30915527 23.36328125 3.29296875 C22.06455078 3.28330078 20.76582031 3.27363281 19.42773438 3.26367188 C18.05598361 3.23860585 16.68423882 3.21321101 15.3125 3.1875 C13.92905076 3.1724502 12.54558599 3.1587623 11.16210938 3.14648438 C7.77434793 3.11107223 4.38736861 3.06168054 1 3 C0.67 2.01 0.34 1.02 0 0 Z " fill="#E8E8E8" transform="translate(683,830)"/>
<path d="M0 0 C0.99 0 1.98 0 3 0 C3 5.94 3 11.88 3 18 C0.91163328 13.82326657 0.6304381 11.34788582 0.375 6.75 C0.30023437 5.48671875 0.22546875 4.2234375 0.1484375 2.921875 C0.09945312 1.95765625 0.05046875 0.9934375 0 0 Z " fill="#3B84DF" transform="translate(665,336)"/>
</svg>
