<?xml version="1.0" encoding="UTF-8"?>
<svg version="1.1" xmlns="http://www.w3.org/2000/svg" width="32" height="32">
<path d="M0 0 C10.56 0 21.12 0 32 0 C32 10.56 32 21.12 32 32 C21.44 32 10.88 32 0 32 C0 21.44 0 10.88 0 0 Z " fill="#2978E1" transform="translate(0,0)"/>
<path d="M0 0 C0.33 0.99 0.66 1.98 1 3 C1.99 3 2.98 3 4 3 C4 7 4 11 4 15 C4.31088368 16.67099977 4.64080332 18.33871537 5 20 C3.68 20 2.36 20 1 20 C-1.00401011 20.30830925 -3.00511766 20.63729412 -5 21 C-5.33 19.68 -5.66 18.36 -6 17 C-4.68 17 -3.36 17 -2 17 C-2.84429676 14.72573954 -2.84429676 14.72573954 -5.50390625 14.1484375 C-6.51324219 13.89320312 -7.52257812 13.63796875 -8.5625 13.375 C-9.57441406 13.11460938 -10.58632812 12.85421875 -11.62890625 12.5859375 C-12.41136719 12.39257812 -13.19382812 12.19921875 -14 12 C-14 9.36 -14 6.72 -14 4 C-12.35 4 -10.7 4 -9 4 C-9.66 3.01 -10.32 2.02 -11 1 C-6.8204355 -1.78637633 -4.85331323 -0.79562512 0 0 Z " fill="#77A9EC" transform="translate(21,6)"/>
<path d="M0 0 C10.56 0 21.12 0 32 0 C32 10.56 32 21.12 32 32 C21.44 32 10.88 32 0 32 C0 21.44 0 10.88 0 0 Z M2.18505859 2.18505859 C0.55621861 4.67966025 0.61190818 6.46976665 0.6015625 9.4375 C0.59769531 10.49710938 0.59382812 11.55671875 0.58984375 12.6484375 C0.60144531 13.75445312 0.61304687 14.86046875 0.625 16 C0.61339844 17.10601563 0.60179688 18.21203125 0.58984375 19.3515625 C0.59371094 20.41117188 0.59757813 21.47078125 0.6015625 22.5625 C0.60494629 23.53316406 0.60833008 24.50382812 0.61181641 25.50390625 C0.82533636 28.0044482 0.82533636 28.0044482 2.18505859 29.81494141 C4.67966025 31.44378139 6.46976665 31.38809182 9.4375 31.3984375 C10.49710938 31.40230469 11.55671875 31.40617187 12.6484375 31.41015625 C13.75445312 31.39855469 14.86046875 31.38695313 16 31.375 C17.10601563 31.38660156 18.21203125 31.39820312 19.3515625 31.41015625 C20.41117188 31.40628906 21.47078125 31.40242188 22.5625 31.3984375 C23.53316406 31.39505371 24.50382812 31.39166992 25.50390625 31.38818359 C28.0044482 31.17466364 28.0044482 31.17466364 29.81494141 29.81494141 C31.44378139 27.32033975 31.38809182 25.53023335 31.3984375 22.5625 C31.40230469 21.50289062 31.40617187 20.44328125 31.41015625 19.3515625 C31.39855469 18.24554687 31.38695313 17.13953125 31.375 16 C31.38660156 14.89398438 31.39820312 13.78796875 31.41015625 12.6484375 C31.40435547 11.05902344 31.40435547 11.05902344 31.3984375 9.4375 C31.39505371 8.46683594 31.39166992 7.49617187 31.38818359 6.49609375 C31.17466364 3.9955518 31.17466364 3.9955518 29.81494141 2.18505859 C27.32033975 0.55621861 25.53023335 0.61190818 22.5625 0.6015625 C21.50289062 0.59769531 20.44328125 0.59382812 19.3515625 0.58984375 C17.69253906 0.60724609 17.69253906 0.60724609 16 0.625 C14.34097656 0.60759766 14.34097656 0.60759766 12.6484375 0.58984375 C11.58882812 0.59371094 10.52921875 0.59757813 9.4375 0.6015625 C7.98150391 0.60663818 7.98150391 0.60663818 6.49609375 0.61181641 C3.9955518 0.82533636 3.9955518 0.82533636 2.18505859 2.18505859 Z " fill="#C5DAF7" transform="translate(0,0)"/>
<path d="M0 0 C0.33 0.99 0.66 1.98 1 3 C1.99 3 2.98 3 4 3 C4 5.97 4 8.94 4 12 C1.36 12.33 -1.28 12.66 -4 13 C-3.67 11.35 -3.34 9.7 -3 8 C-3.99 8 -4.98 8 -6 8 C-6.99 7.67 -7.98 7.34 -9 7 C-9.90837763 4.52260646 -10 2.66420516 -10 0 C-6.7169902 -1.6415049 -3.57454967 -0.51888624 0 0 Z " fill="#ACCBF3" transform="translate(21,6)"/>
<path d="M0 0 C0.66 1.32 1.32 2.64 2 4 C11.24 4 20.48 4 30 4 C30.33 3.01 30.66 2.02 31 1 C31.33 1 31.66 1 32 1 C32 2.65 32 4.3 32 6 C21.44 6 10.88 6 0 6 C0 4.02 0 2.04 0 0 Z " fill="#D9E6F9" transform="translate(0,26)"/>
<path d="M0 0 C1.32 0 2.64 0 4 0 C4.33 0.99 4.66 1.98 5 3 C5.99 3.66 6.98 4.32 8 5 C8 6.32 8 7.64 8 9 C5.36 8.67 2.72 8.34 0 8 C0 5.36 0 2.72 0 0 Z " fill="#E9F1FC" transform="translate(7,10)"/>
<path d="M0 0 C1.258125 0.226875 2.51625 0.45375 3.8125 0.6875 C3.8125 1.6775 3.8125 2.6675 3.8125 3.6875 C-2.5875 4.91826923 -2.5875 4.91826923 -5.625 3.75 C-6.140625 3.399375 -6.65625 3.04875 -7.1875 2.6875 C-5.15110924 -0.49436057 -3.4972064 -0.45804119 0 0 Z " fill="#F4F8FD" transform="translate(17.1875,5.3125)"/>
<path d="M0 0 C0.66 0 1.32 0 2 0 C2 2.64 2 5.28 2 8 C-0.31 8.33 -2.62 8.66 -5 9 C-4.67 7.35 -4.34 5.7 -4 4 C-2.68 4 -1.36 4 0 4 C0 2.68 0 1.36 0 0 Z " fill="#F7FAFE" transform="translate(22,10)"/>
<path d="M0 0 C5.75 -0.125 5.75 -0.125 8 1 C7.67 2.32 7.34 3.64 7 5 C5.35 5 3.7 5 2 5 C2 3.68 2 2.36 2 1 C1.34 0.67 0.68 0.34 0 0 Z " fill="#B3CFF4" transform="translate(6,21)"/>
</svg>
